<?xml version="1.0" encoding="utf-8"?>
<!-- Generator: Adobe Illustrator 25.4.1, SVG Export Plug-In . SVG Version: 6.00 Build 0)  -->
<svg version="1.1" id="Layer_1" xmlns="http://www.w3.org/2000/svg" xmlns:xlink="http://www.w3.org/1999/xlink" x="0px" y="0px"
	 viewBox="0 0 512 512" style="enable-background:new 0 0 512 512;" xml:space="preserve">
<style type="text/css">
	.st0{fill:#FFFFFF;}
</style>
<path class="st0" d="M501.2,235c-10.4-14-26.3-22-43.7-22H448v-42.4C448,111.9,400.1,64,341.3,64H233.5c-3.3,0-6.6-0.8-9.5-2.2
	l-67.3-33.7c-8.8-4.4-18.7-6.7-28.6-6.7H85.3C38.3,21.3,0,59.6,0,106.7V384c0,58.8,47.9,106.7,106.7,106.7h267.9
	c47.5,0,88.5-30.5,102.4-76.9l32.7-130.5C514.7,266.6,511.6,249,501.2,235L501.2,235z M42.7,384V106.7C42.7,83.1,61.8,64,85.3,64
	H128c3.3,0,6.6,0.8,9.5,2.2l67.3,33.7c8.8,4.4,18.7,6.7,28.6,6.7h107.9c35.3,0,64,28.7,64,64V213H183.8c-36.3,0-68.7,23-80.8,58
	L56.2,423.3C47.7,412.5,42.7,398.8,42.7,384L42.7,384z M468.6,271.9l-32.7,130.5c-8.2,27.3-32.8,45.6-61.3,45.6H106.7
	c-4.4,0-8.8-0.4-12.9-1.3l49.8-162.3c6-17.1,22.2-28.6,40.3-28.6h273.7c5.2,0,8.2,3,9.5,4.8C468.3,262.3,470.3,266,468.6,271.9z"/>
</svg>
