<?xml version="1.0" encoding="utf-8"?>
<!-- Generator: Adobe Illustrator 25.4.1, SVG Export Plug-In . SVG Version: 6.00 Build 0)  -->
<svg version="1.1" id="Layer_1" xmlns="http://www.w3.org/2000/svg" xmlns:xlink="http://www.w3.org/1999/xlink" x="0px" y="0px"
	 viewBox="0 0 24 24" style="enable-background:new 0 0 24 24;" xml:space="preserve">
<style type="text/css">
	.st0{fill:#FFFFFF;}
</style>
<path class="st0" d="M23.1,2.9C22.6,2.3,21.8,2,21,2h-2c-1.7,0-3,1.3-3,3l0,4.1c0,0.5,0.3,1,0.7,1.2c0.4,0.2,1,0.2,1.4,0l2-1.3H21
	c1.7,0,3-1.3,3-3V5C24,4.2,23.7,3.4,23.1,2.9L23.1,2.9z M22,6c0,0.6-0.4,1-1,1h-1.2c-0.2,0-0.4,0.1-0.5,0.2L18,8V5c0-0.6,0.4-1,1-1
	h2c0.3,0,0.5,0.1,0.7,0.3C21.9,4.5,22,4.7,22,5L22,6L22,6z M3.9,15l2,1.2c0.4,0.3,1,0.3,1.4,0C7.7,16,8,15.6,8,15.1L8,11
	c0-1.7-1.3-3-3-3H3l0,0C2.2,8,1.4,8.3,0.9,8.9C0.3,9.4,0,10.2,0,11v1c0,1.7,1.3,3,3,3L3.9,15L3.9,15z M2,12v-1
	c0-0.3,0.1-0.5,0.3-0.7S2.7,10,3,10h2c0.6,0,1,0.4,1,1v3l-1.3-0.8C4.6,13.1,4.4,13,4.2,13H3C2.4,13,2,12.5,2,12L2,12z M2.5,6.3
	C2.1,6,2,5.4,2.3,4.9C4.6,1.9,8.5,0,11.9,0c1.1,0,2.3,0.1,3.3,0.4c0.5,0.2,0.8,0.7,0.7,1.2c-0.1,0.4-0.5,0.7-1,0.7
	c-0.1,0-0.3,0-0.4-0.1c0,0,0,0,0,0c0.3,0.4,0.3,1.1-0.2,1.4c-0.4,0.3-1.1,0.3-1.4-0.2c-0.4-0.5-0.8-0.9-1.1-1.2
	c-0.7,0.8-2,2.2-3,4.1C8.8,7,8.2,7.1,7.7,6.9C7.2,6.6,7,6,7.3,5.5c0.7-1.2,1.4-2.3,2.1-3.2C7.2,3,5.3,4.2,3.9,6.1
	C3.6,6.5,3,6.6,2.5,6.3L2.5,6.3z M14,8c0,0.6-0.4,1-1,1h-3C9.4,9,9,8.6,9,8s0.4-1,1-1h3C13.6,7,14,7.4,14,8z M22.9,10
	c-0.5,0-1,0.5-0.9,1.1c0,0.3,0,0.6,0,0.9c0,1-0.2,2.1-0.5,3h-3.4c0.2-0.6,0.3-1.2,0.3-1.9c0.1-0.6-0.3-1-0.9-1.1
	c-0.6-0.1-1,0.3-1.1,0.9c-0.1,0.7-0.2,1.4-0.4,2.1h-5.5c-0.6,0-1,0.4-1,1c0,0.6,0.4,1,1,1h4.7c-1,2.1-2.4,3.7-3.2,4.6
	c-0.7-0.7-1.7-1.9-2.6-3.5c-0.3-0.5-0.9-0.6-1.4-0.4c-0.5,0.3-0.6,0.9-0.4,1.4c0.6,1,1.2,1.8,1.8,2.5C7.1,21,5,19.6,3.6,17.5
	c-0.3-0.5-0.9-0.6-1.4-0.3c-0.5,0.3-0.6,0.9-0.3,1.4C4.2,22,7.9,24,12,24s0,0,0,0c6.6,0,12-5.4,12-12c0-0.4,0-0.7,0-1.1
	C23.9,10.4,23.4,10,22.9,10L22.9,10z M14.6,21.6c0.9-1.2,2-2.8,2.8-4.6h3.2C19.3,19.3,17.2,20.9,14.6,21.6L14.6,21.6z"/>
</svg>
