<?xml version="1.0" encoding="utf-8"?>
<!-- Generator: Adobe Illustrator 25.4.1, SVG Export Plug-In . SVG Version: 6.00 Build 0)  -->
<svg version="1.1" id="Layer_1" xmlns="http://www.w3.org/2000/svg" xmlns:xlink="http://www.w3.org/1999/xlink" x="0px" y="0px"
	 viewBox="0 0 24 24" style="enable-background:new 0 0 24 24;" xml:space="preserve">
<style type="text/css">
	.st0{fill:#FFFFFF;}
</style>
<path class="st0" d="M8.5,9.5c0,0.6,0.1,1.1,0.4,1.5c-0.5,0.6-0.8,1.4-0.8,2.3c-0.9-1-1.5-2.3-1.5-3.8c0-3.4,3.1-6.1,6.7-5.4
	c2.1,0.4,3.8,2.1,4.2,4.2c0.1,0.6,0.2,1.2,0.1,1.8c-0.1,0.5-0.5,0.9-1,0.9h0c-0.6,0-1-0.5-0.9-1.1c0-0.4,0-0.8-0.1-1.2
	c-0.3-1.3-1.3-2.3-2.6-2.6C10.5,5.6,8.5,7.3,8.5,9.5L8.5,9.5z M4.6,8.2c0.3-1.6,1.1-3,2.3-4.2c1.5-1.4,3.5-2.1,5.6-2
	c4,0.3,7,3.7,7,7.9c0,1.7-1.5,3.1-3.2,3.1h-2.4c-0.2-0.8-1-1.4-1.9-1.4c-1.1,0-2,0.9-2,2s0.9,2,2,2c0.5,0,1-0.2,1.4-0.6h2.9
	c2.8,0,5.2-2.2,5.2-5.1c0.1-5.2-3.8-9.6-8.9-9.9C10-0.2,7.4,0.8,5.5,2.6C4,4,3,5.8,2.6,7.8C2.5,8.4,3,9,3.6,9C4.1,9,4.5,8.7,4.6,8.2
	L4.6,8.2z M12,17c-3.7,0-6.9,2.3-8,5.7c-0.2,0.5,0.1,1.1,0.7,1.3c0.5,0.2,1.1-0.1,1.3-0.7c0.8-2.5,3.3-4.3,6-4.3s5.3,1.8,6,4.3
	c0.1,0.4,0.5,0.7,1,0.7c0.1,0,0.2,0,0.3,0c0.5-0.2,0.8-0.7,0.7-1.3C18.9,19.3,15.7,17,12,17L12,17z"/>
</svg>
