<svg id="Layer_1" data-name="Layer 1" xmlns="http://www.w3.org/2000/svg" xmlns:xlink="http://www.w3.org/1999/xlink" viewBox="0 0 4000 4000"><defs><style>.cls-1{fill:#151515;}.cls-2{fill:url(#linear-gradient);}.cls-3{fill:url(#linear-gradient-2);}.cls-4{fill:url(#linear-gradient-3);}.cls-5{fill:url(#linear-gradient-4);}.cls-6{fill:#fff;}</style><linearGradient id="linear-gradient" x1="841.99" y1="2447.96" x2="1356.93" y2="2447.96" gradientTransform="matrix(1, 0, 0, -1, 0, 4000)" gradientUnits="userSpaceOnUse"><stop offset="0.14" stop-color="#4858cc"/><stop offset="0.34" stop-color="#3c4abf"/><stop offset="0.7" stop-color="#1d269d"/><stop offset="1" stop-color="#00047e"/></linearGradient><linearGradient id="linear-gradient-2" x1="1501.77" y1="2447.94" x2="2226.55" y2="2447.94" xlink:href="#linear-gradient"/><linearGradient id="linear-gradient-3" x1="2388.3" y1="2447.99" x2="2529.74" y2="2447.99" xlink:href="#linear-gradient"/><linearGradient id="linear-gradient-4" x1="2742.92" y1="2447.99" x2="3248.32" y2="2447.99" xlink:href="#linear-gradient"/></defs><rect class="cls-1" width="4000" height="4000" rx="1131.3"/><g id="Layer_2" data-name="Layer 2"><path class="cls-2" d="M842,1946.69V1157.34h512.82v119.25H983.43v213h343.83v117.61H983.43v220.32h373.5v119.26Z"/><path class="cls-3" d="M1501.77,1946.69l320-456.14V1597l-297.2-439.7h163.69l95.89,144.09q24.36,37.1,40.27,65.7t29.14,55.35q13.24,26.76,29.14,58h-34.44q16.41-31.24,29.67-57.74t29.44-55.36q16.2-28.89,41.06-66l97.49-144.09h160l-294,432.86V1487.43l314.69,459.36H2060.18l-119.73-176.94q-21.73-33.36-35.76-56.69t-25.69-45l-27-50.34h24.36q-14.83,27.57-26.5,49.28t-25.95,45.55q-14.31,23.85-37.62,57.22l-121.85,176.94Z"/><path class="cls-4" d="M2529.74,1157.34v789.35H2388.3V1157.34Z"/><path class="cls-5" d="M2742.92,1946.69V1157.34h505.4v119.25H2884.38V1513.3h328.45v117.61H2884.38v315.73Z"/><path class="cls-6" d="M1183.2,2171.3a65.48,65.48,0,0,1-46.63-18.53q-19.59-18.55-19.6-44.51a58.88,58.88,0,0,1,19.6-44.76,69.19,69.19,0,0,1,93.77,0,58.91,58.91,0,0,1,19.61,44.76q0,26-19.61,44.51A66.09,66.09,0,0,1,1183.2,2171.3ZM1135,2860.54V2268.26h95.36v592.28Z"/><path class="cls-6" d="M1452,2860.54V2268.26h92.75l.53,132.5h-7.36q12.16-48.2,38.4-79.74a170.78,170.78,0,0,1,61.45-47.41,176.59,176.59,0,0,1,73.38-15.9q64.62,0,104.62,39.76t51.67,104.37h-12.72q10.6-44.51,38.68-76.83a189.32,189.32,0,0,1,68.08-49.79q40-17.49,87.14-17.49,51.38,0,93.77,22.26t67.54,67.27q25.16,45,25.16,113.91v399.44h-95.35V2463.82q0-64.09-36-91.65T2020,2344.61q-39.75,0-68.61,16.7a114.51,114.51,0,0,0-44.5,45.81q-15.64,29.16-15.62,66.76v386.73h-95.37V2454.25q0-49.27-32.84-79.5t-83.17-30.2a136.53,136.53,0,0,0-64.9,16.2q-30.48,16.18-49,47.93t-18.55,79v372.95Z"/><path class="cls-6" d="M2696.66,3094.71q-65.7,0-113.65-16.7t-79.72-44.17q-31.78-27.56-50.33-59.86l77.34-49.81q12.72,17,31.52,37.62t50.86,35.23q32,14.57,83.92,14.56,71,0,116.81-33.86t45.82-107V2752h-9a394.09,394.09,0,0,1-28.34,40.27q-18.27,23.33-52.45,41.05t-91.38,17.75q-71,0-127.68-33.64t-89.53-98.28Q2428,2654.57,2428,2561.85q0-91.63,32.39-159.19T2549.65,2298q56.94-37.07,130.59-37.08,57.21,0,91.39,18.81t52.71,43.17q18.54,24.39,28.6,40.27h9v-94.83h92.75v607.55q0,76.28-34.44,124.76t-93,71.25Q2768.7,3094.68,2696.66,3094.71ZM2694,2766.23q54,0,91.12-24.63t56.15-71q19.06-46.35,19.07-111,0-63-18.8-111t-56-75.22q-37.07-27.26-91.55-27.25-56.15,0-93.77,28.87t-56.4,77.05q-18.83,48.19-18.82,107.48,0,60.91,19.14,107.55t56.68,72.83q37.5,26.3,93.17,26.29Z"/></g></svg>