<?xml version="1.0" encoding="utf-8"?>
<!-- Generator: Adobe Illustrator 25.4.1, SVG Export Plug-In . SVG Version: 6.00 Build 0)  -->
<svg version="1.1" id="Layer_1" xmlns="http://www.w3.org/2000/svg" xmlns:xlink="http://www.w3.org/1999/xlink" x="0px" y="0px"
	 viewBox="0 0 4000 4000" style="enable-background:new 0 0 4000 4000;" xml:space="preserve">
<style type="text/css">
	.st0{fill:url(#SVGID_1_);}
	.st1{fill:url(#SVGID_00000126296642680227918910000002498616080852197034_);}
	.st2{fill:url(#SVGID_00000137833475265433753040000011356074694630415489_);}
	.st3{fill:url(#SVGID_00000160152418276111738100000014168042479030076801_);}
	.st4{fill:#FFFFFF;}
</style>
<g id="Layer_2_00000100349382094450103320000003832292278152157595_">
	
		<linearGradient id="SVGID_1_" gradientUnits="userSpaceOnUse" x1="500" y1="2070.6851" x2="849.75" y2="2070.6851" gradientTransform="matrix(1 0 0 -1 0 4000)">
		<stop  offset="0.14" style="stop-color:#4858CC"/>
		<stop  offset="0.34" style="stop-color:#3C4ABF"/>
		<stop  offset="0.7" style="stop-color:#1D269D"/>
		<stop  offset="1" style="stop-color:#00047E"/>
	</linearGradient>
	<path class="st0" d="M500,2197.4v-536.1h348.3v81H596.1v144.7h233.5v79.9H596.1v149.6h253.7v81L500,2197.4z"/>
	
		<linearGradient id="SVGID_00000044862856326569180090000006282760954898140853_" gradientUnits="userSpaceOnUse" x1="948.13" y1="2070.6699" x2="1440.4001" y2="2070.6699" gradientTransform="matrix(1 0 0 -1 0 4000)">
		<stop  offset="0.14" style="stop-color:#4858CC"/>
		<stop  offset="0.34" style="stop-color:#3C4ABF"/>
		<stop  offset="0.7" style="stop-color:#1D269D"/>
		<stop  offset="1" style="stop-color:#00047E"/>
	</linearGradient>
	<path style="fill:url(#SVGID_00000044862856326569180090000006282760954898140853_);" d="M948.1,2197.4l217.3-309.8v72.3
		l-201.9-298.7h111.2l65.1,97.9c11,16.8,20.1,31.7,27.3,44.6s13.8,25.5,19.8,37.6c6,12.1,12.6,25.2,19.8,39.4h-23.4
		c7.4-14.2,14.2-27.2,20.2-39.2s12.7-24.5,20-37.6c7.3-13.1,16.6-28,27.9-44.8l66.2-97.9h108.7l-199.7,294v-69.8l213.7,312h-113
		l-81.3-120.2c-9.8-15.1-17.9-27.9-24.3-38.5c-6.4-10.6-12.2-20.8-17.4-30.6c-5.3-9.8-11.4-21.2-18.3-34.2h16.6
		c-6.7,12.5-12.7,23.6-18,33.5c-5.3,9.8-11.2,20.1-17.6,30.9c-6.5,10.8-15,23.8-25.6,38.9l-82.8,120.2L948.1,2197.4z"/>
	
		<linearGradient id="SVGID_00000054961324511646385110000000274210370836209537_" gradientUnits="userSpaceOnUse" x1="1550.26" y1="2070.7051" x2="1646.33" y2="2070.7051" gradientTransform="matrix(1 0 0 -1 0 4000)">
		<stop  offset="0.14" style="stop-color:#4858CC"/>
		<stop  offset="0.34" style="stop-color:#3C4ABF"/>
		<stop  offset="0.7" style="stop-color:#1D269D"/>
		<stop  offset="1" style="stop-color:#00047E"/>
	</linearGradient>
	<path style="fill:url(#SVGID_00000054961324511646385110000000274210370836209537_);" d="M1646.3,1661.2v536.1h-96.1v-536.1H1646.3
		z"/>
	
		<linearGradient id="SVGID_00000055696380852445658090000002433322793524184976_" gradientUnits="userSpaceOnUse" x1="1791.12" y1="2070.7051" x2="2134.3899" y2="2070.7051" gradientTransform="matrix(1 0 0 -1 0 4000)">
		<stop  offset="0.14" style="stop-color:#4858CC"/>
		<stop  offset="0.34" style="stop-color:#3C4ABF"/>
		<stop  offset="0.7" style="stop-color:#1D269D"/>
		<stop  offset="1" style="stop-color:#00047E"/>
	</linearGradient>
	<path style="fill:url(#SVGID_00000055696380852445658090000002433322793524184976_);" d="M1791.1,2197.4v-536.1h343.3v81h-247.2
		V1903h223.1v79.9h-223.1v214.5L1791.1,2197.4z"/>
	<path class="st4" d="M2296.8,1729.2c-11.8,0.2-23.2-4.4-31.7-12.6c-8.9-8.4-13.3-18.5-13.3-30.2c-0.2-11.6,4.7-22.7,13.3-30.4
		c18-16.6,45.7-16.6,63.7,0c8.6,7.7,13.5,18.8,13.3,30.4c0,11.8-4.4,21.8-13.3,30.2C2320.3,1724.9,2308.7,1729.5,2296.8,1729.2z
		 M2264.1,2197.4v-402.3h64.8v402.3H2264.1z"/>
	<path class="st4" d="M2479.4,2197.4v-402.3h63l0.4,90h-5c5.5-21.8,14.2-39.9,26.1-54.2c11.3-13.8,25.5-24.8,41.7-32.2
		c15.6-7.1,32.6-10.8,49.8-10.8c29.3,0,52.9,9,71.1,27s29.8,41.6,35.1,70.9h-8.6c4.8-20.2,13.6-37.5,26.3-52.2
		c12.7-14.6,28.5-26.2,46.2-33.8c18.1-7.9,37.8-11.9,59.2-11.9c23.3,0,44.5,5,63.7,15.1c19.2,10.1,34.5,25.3,45.9,45.7
		c11.4,20.4,17.1,46.2,17.1,77.4v271.3h-64.8v-269.5c0-29-8.2-49.8-24.5-62.2c-16.3-12.5-35.3-18.7-56.9-18.7
		c-18,0-33.5,3.8-46.6,11.3c-12.8,7.3-23.3,18.1-30.2,31.1c-7.1,13.2-10.6,28.3-10.6,45.3v262.7H2713v-276c0-22.3-7.4-40.3-22.3-54
		c-14.9-13.7-33.7-20.5-56.5-20.5c-15.4,0-30.5,3.7-44.1,11c-13.8,7.3-24.9,18.2-33.3,32.6s-12.6,32.2-12.6,53.6v253.3
		L2479.4,2197.4z"/>
	<path class="st4" d="M3324.8,2356.4c-29.7,0-55.5-3.8-77.2-11.3s-39.8-17.6-54.1-30c-14.4-12.5-25.8-26-34.2-40.7l52.5-33.8
		c5.8,7.7,12.9,16.2,21.4,25.6c8.5,9.4,20,17.3,34.5,23.9c14.5,6.6,33.5,9.9,57,9.9c32.1,0,58.6-7.7,79.3-23s31.1-39.6,31.1-72.7
		v-80.6h-6.1c-5.8,9.5-12.3,18.6-19.2,27.4c-8.3,10.6-20.1,19.9-35.6,27.9c-15.5,8-36.2,12-62.1,12.1c-32.2,0-61.1-7.6-86.7-22.9
		s-45.9-37.5-60.8-66.8c-14.9-29.3-22.3-64.9-22.3-106.9c0-41.5,7.3-77.5,22-108.1s34.9-54.3,60.6-71.1
		c25.8-16.8,55.4-25.2,88.7-25.2c25.9,0,46.6,4.3,62.1,12.8c15.5,8.5,27.4,18.3,35.8,29.3c8.4,11,14.9,20.2,19.4,27.3h6.1v-64.4h63
		v412.7c0,34.5-7.8,62.8-23.4,84.7s-36.6,38.1-63.1,48.4C3387,2351.2,3357.4,2356.4,3324.8,2356.4z M3323,2133.3
		c24.5,0,45.1-5.6,61.9-16.7s29.5-27.2,38.1-48.2c8.6-21,13-46.1,12.9-75.4c0-28.5-4.3-53.7-12.8-75.4s-21.2-38.7-38-51.1
		c-16.8-12.3-37.5-18.5-62.2-18.5c-25.4,0-46.7,6.5-63.7,19.6c-17,13.1-29.8,30.5-38.3,52.3c-8.5,21.8-12.8,46.2-12.8,73
		c0,27.6,4.3,51.9,13,73.1c8.7,21.1,21.5,37.6,38.5,49.5C3276.7,2127.4,3297.8,2133.3,3323,2133.3L3323,2133.3z"/>
</g>
</svg>
